<svg width="800" height="600" viewBox="0 0 800 600" xmlns="http://www.w3.org/2000/svg" role="img" aria-labelledby="title desc">
  <title id="title">Security Operations Toolkit</title>
  <desc id="desc">Interface for monitoring threat metrics with data visualisations</desc>
  <defs>
    <linearGradient id="guardian-bg" x1="0%" y1="0%" x2="0%" y2="100%">
      <stop offset="0%" stop-color="#10182d" />
      <stop offset="100%" stop-color="#070a16" />
    </linearGradient>
    <linearGradient id="guardian-accent" x1="0%" y1="0%" x2="100%" y2="0%">
      <stop offset="0%" stop-color="#8E2DE2" />
      <stop offset="100%" stop-color="#00E5FF" />
    </linearGradient>
  </defs>
  <rect fill="url(#guardian-bg)" width="800" height="600" rx="40" />
  <rect x="120" y="120" width="560" height="320" rx="28" fill="rgba(255,255,255,0.05)" stroke="rgba(0,229,255,0.35)" />
  <rect x="160" y="160" width="160" height="60" rx="16" fill="rgba(142,45,226,0.24)" />
  <rect x="340" y="160" width="200" height="26" rx="13" fill="rgba(0,229,255,0.22)" />
  <rect x="340" y="198" width="140" height="26" rx="13" fill="rgba(142,45,226,0.22)" />
  <rect x="160" y="250" width="480" height="150" rx="22" fill="rgba(9,15,28,0.9)" />
  <polyline points="180,360 220,320 260,340 300,280 340,310 380,255 420,290 460,240 500,280 540,250 580,300 620,270" fill="none" stroke="url(#guardian-accent)" stroke-width="10" stroke-linecap="round" stroke-linejoin="round" opacity="0.85" />
  <circle cx="220" cy="320" r="14" fill="#8E2DE2" />
  <circle cx="340" cy="310" r="14" fill="#00E5FF" />
  <circle cx="420" cy="290" r="14" fill="#8E2DE2" />
  <circle cx="540" cy="250" r="14" fill="#00E5FF" />
  <rect x="120" y="470" width="560" height="40" rx="20" fill="rgba(255,255,255,0.08)" />
  <rect x="160" y="478" width="200" height="24" rx="12" fill="url(#guardian-accent)" opacity="0.75" />
</svg>
