<svg width="800" height="600" viewBox="0 0 800 600" xmlns="http://www.w3.org/2000/svg" role="img" aria-labelledby="title desc">
  <title id="title">Synthwave Dashboard Mockup</title>
  <desc id="desc">Gradient illustration representing a futuristic dashboard UI</desc>
  <defs>
    <linearGradient id="bg" x1="0%" y1="0%" x2="100%" y2="100%">
      <stop offset="0%" stop-color="#14182b" />
      <stop offset="100%" stop-color="#0b0f1d" />
    </linearGradient>
    <linearGradient id="accent" x1="0%" y1="0%" x2="100%" y2="100%">
      <stop offset="0%" stop-color="#8E2DE2" />
      <stop offset="100%" stop-color="#00E5FF" />
    </linearGradient>
    <linearGradient id="panel" x1="0%" y1="0%" x2="0%" y2="100%">
      <stop offset="0%" stop-color="rgba(142,45,226,0.2)" />
      <stop offset="100%" stop-color="rgba(0,229,255,0.08)" />
    </linearGradient>
  </defs>
  <rect fill="url(#bg)" width="800" height="600" rx="44" />
  <rect x="120" y="90" width="560" height="380" rx="32" fill="rgba(255,255,255,0.04)" stroke="rgba(0,229,255,0.28)" />
  <rect x="160" y="140" width="220" height="70" rx="18" fill="url(#panel)" />
  <rect x="400" y="140" width="200" height="220" rx="22" fill="url(#panel)" />
  <rect x="160" y="230" width="200" height="14" rx="7" fill="#8E2DE2" opacity="0.7" />
  <rect x="160" y="260" width="260" height="14" rx="7" fill="#00E5FF" opacity="0.7" />
  <rect x="160" y="290" width="180" height="14" rx="7" fill="#8E2DE2" opacity="0.7" />
  <rect x="160" y="320" width="220" height="14" rx="7" fill="#00E5FF" opacity="0.7" />
  <circle cx="500" cy="250" r="70" fill="none" stroke="url(#accent)" stroke-width="16" opacity="0.9" />
  <circle cx="500" cy="250" r="46" fill="none" stroke="#00E5FF" stroke-width="6" opacity="0.5" />
  <path d="M480 280 L510 250 L540 265" fill="none" stroke="#8E2DE2" stroke-width="8" stroke-linecap="round" stroke-linejoin="round" />
  <rect x="280" y="420" width="240" height="14" rx="7" fill="url(#accent)" opacity="0.75" />
  <rect x="120" y="500" width="560" height="40" rx="20" fill="rgba(255,255,255,0.08)" />
  <rect x="160" y="507" width="120" height="26" rx="13" fill="url(#accent)" opacity="0.85" />
</svg>
