<svg width="800" height="600" viewBox="0 0 800 600" xmlns="http://www.w3.org/2000/svg" role="img" aria-labelledby="title desc">
  <title id="title">Soundscape Producer</title>
  <desc id="desc">Audio workstation mockup with gradient waveforms</desc>
  <defs>
    <linearGradient id="soundscape-bg" x1="0%" y1="0%" x2="100%" y2="100%">
      <stop offset="0%" stop-color="#131a2b" />
      <stop offset="100%" stop-color="#080b15" />
    </linearGradient>
    <linearGradient id="soundscape-wave" x1="0%" y1="0%" x2="100%" y2="0%">
      <stop offset="0%" stop-color="#8E2DE2" />
      <stop offset="100%" stop-color="#00E5FF" />
    </linearGradient>
    <linearGradient id="soundscape-panel" x1="0%" y1="0%" x2="0%" y2="100%">
      <stop offset="0%" stop-color="rgba(142,45,226,0.25)" />
      <stop offset="100%" stop-color="rgba(0,229,255,0.1)" />
    </linearGradient>
  </defs>
  <rect fill="url(#soundscape-bg)" width="800" height="600" rx="40" />
  <rect x="120" y="110" width="560" height="360" rx="28" fill="rgba(255,255,255,0.05)" stroke="rgba(0,229,255,0.3)" />
  <rect x="160" y="150" width="480" height="80" rx="20" fill="rgba(0,229,255,0.08)" />
  <rect x="160" y="250" width="480" height="160" rx="22" fill="rgba(9,15,28,0.88)" />
  <path d="M180 330 C220 250 260 410 300 320 C340 230 380 420 420 310 C460 210 500 420 540 310 C580 210 620 410 660 330" fill="none" stroke="url(#soundscape-wave)" stroke-width="12" stroke-linecap="round" stroke-linejoin="round" opacity="0.92" />
  <rect x="160" y="430" width="160" height="16" rx="8" fill="#8E2DE2" opacity="0.65" />
  <rect x="340" y="430" width="200" height="16" rx="8" fill="#00E5FF" opacity="0.65" />
  <rect x="120" y="500" width="560" height="42" rx="21" fill="rgba(255,255,255,0.1)" />
  <rect x="160" y="508" width="200" height="26" rx="13" fill="url(#soundscape-panel)" />
</svg>
